<svg xmlns="http://www.w3.org/2000/svg" viewBox="0 0 512 512" role="img" aria-labelledby="title description">
  <title id="title">VaneHub AI app icon</title>
  <desc id="description">A minimal V-shaped agent hub inside an orchestration orbit.</desc>

  <path d="M158 18h196c94 0 140 46 140 140v196c0 94-46 140-140 140H158C64 494 18 448 18 354V158C18 64 64 18 158 18Z" fill="#0B1220"/>

  <path d="M112 351a174 174 0 0 1 290-207 174 174 0 0 1 8 207" fill="none" stroke="#38C7D1" stroke-width="18" stroke-linecap="round"/>

  <path d="M164 164 256 359 348 164" fill="none" stroke="#F8FAFC" stroke-width="66" stroke-linecap="round" stroke-linejoin="round"/>

  <circle cx="164" cy="164" r="9" fill="#38C7D1"/>
  <circle cx="348" cy="164" r="9" fill="#38C7D1"/>
  <circle cx="256" cy="359" r="19" fill="#38C7D1" stroke="#0B1220" stroke-width="8"/>
</svg>
