<?xml version="1.0" encoding="utf-8"?>
<svg xmlns="http://www.w3.org/2000/svg" viewBox="0 0 1200 900" font-family="Arial, Helvetica, &quot;PingFang SC&quot;, sans-serif">
  <!-- ===== BACKGROUND ===== -->
  <rect width="1200" height="900" fill="#FFFFFF" />
  <!-- Subtle grid pattern -->
  <g>
    <line x1="0" y1="0" x2="0" y2="900" stroke="#2563EB" stroke-width="1.5" fill="none" />
    <line x1="60" y1="0" x2="60" y2="900" stroke="#2563EB" stroke-width="1.5" fill="none" />
    <line x1="120" y1="0" x2="120" y2="900" stroke="#2563EB" stroke-width="1.5" fill="none" />
    <line x1="180" y1="0" x2="180" y2="900" stroke="#2563EB" stroke-width="1.5" fill="none" />
    <line x1="240" y1="0" x2="240" y2="900" stroke="#2563EB" stroke-width="1.5" fill="none" />
    <line x1="300" y1="0" x2="300" y2="900" stroke="#2563EB" stroke-width="1.5" fill="none" />
    <line x1="0" y1="60" x2="1200" y2="60" stroke="#2563EB" stroke-width="1.5" fill="none" />
    <line x1="0" y1="120" x2="1200" y2="120" stroke="#2563EB" stroke-width="1.5" fill="none" />
    <line x1="0" y1="180" x2="1200" y2="180" stroke="#2563EB" stroke-width="1.5" fill="none" />
  </g>
  <!-- ==================== TOP NAV ==================== -->
  <rect x="0" y="0" width="1200" height="48" fill="#FFFFFF" />
  <!-- Blue highlight line at top -->
  <rect x="0" y="0" width="1200" height="2" fill="#2563EB" />
  <!-- Divider line -->
  <line x1="0" y1="48" x2="1200" y2="48" stroke="#111827" stroke-width="1.5" fill="none" />
  <!-- Logo circle -->
  <circle cx="24" cy="24" r="12" fill="none" stroke="#2563EB" stroke-width="1.5" />
  <text x="24" y="28" fill="#2563EB" font-size="11" font-weight="bold" text-anchor="middle">V</text>
  <text x="44" y="29" fill="#111827" font-size="12" font-weight="bold">VaneHub AI</text>
  <!-- Breadcrumb -->
  <text x="150" y="29" fill="#111827" font-size="11">/</text>
  <text x="164" y="29" fill="#111827" font-size="11">设置</text>
  <text x="196" y="29" fill="#111827" font-size="11">/</text>
  <text x="210" y="29" fill="#111827" font-size="11" font-weight="600">供应商管理</text>
  <!-- Search -->
  <rect x="780" y="12" width="260" height="26" rx="4" fill="#FFFFFF" stroke="#111827" stroke-width="1.5" />
  <text x="796" y="29" fill="#111827" font-size="11">S</text>
  <text x="814" y="29" fill="#111827" font-size="11">搜索供应商...</text>
  <rect x="1020" y="16" width="36" height="18" rx="4" fill="#FFFFFF" stroke="#111827" stroke-width="1.5" />
  <text x="1038" y="29" fill="#111827" font-size="11" text-anchor="middle">/</text>
  <!-- Return button -->
  <rect x="1110" y="12" width="72" height="26" rx="4" fill="#FFFFFF" stroke="#111827" stroke-width="1.5" />
  <text x="1146" y="29" fill="#111827" font-size="11" text-anchor="middle">返回</text>
  <!-- ==================== LEFT SIDEBAR ==================== -->
  <rect x="0" y="48" width="220" height="802" fill="#FFFFFF" />
  <line x1="220" y1="48" x2="220" y2="850" stroke="#111827" stroke-width="1.5" fill="none" />
  <!-- Section label -->
  <text x="16" y="76" fill="#111827" font-size="11" font-weight="600">系统设置</text>
  <line x1="16" y1="84" x2="204" y2="84" stroke="#111827" stroke-width="1.5" fill="none" />
  <!-- Nav 1: 基础配置 -->
  <rect x="8" y="96" width="204" height="36" rx="4" fill="none" />
  <circle cx="28" cy="114" r="10" fill="#FFFFFF" stroke="#111827" stroke-width="1.5" />
  <text x="28" y="118" fill="#111827" font-size="11" text-anchor="middle" font-weight="600">B</text>
  <text x="46" y="118" fill="#111827" font-size="11">基础配置</text>
  <!-- Nav 2: 供应商管理 (ACTIVE) -->
  <rect x="8" y="140" width="204" height="36" rx="4" fill="#FFFFFF" />
  <!-- Left blue indicator bar -->
  <rect x="0" y="140" width="3" height="36" rx="4" fill="#2563EB" />
  <circle cx="28" cy="158" r="10" fill="#FFFFFF" stroke="#2563EB" stroke-width="1.5" />
  <text x="28" y="162" fill="#2563EB" font-size="11" text-anchor="middle" font-weight="600">P</text>
  <text x="46" y="162" fill="#2563EB" font-size="11" font-weight="600">供应商管理</text>
  <!-- Badge -->
  <rect x="176" y="150" width="24" height="16" rx="4" fill="#FFFFFF" stroke="#FFFFFF" stroke-width="1.5" />
  <text x="188" y="162" fill="#2563EB" font-size="11" text-anchor="middle" font-weight="600">3</text>
  <!-- Nav 3: SDK 依赖 -->
  <rect x="8" y="184" width="204" height="36" rx="4" fill="none" />
  <circle cx="28" cy="202" r="10" fill="#FFFFFF" stroke="#111827" stroke-width="1.5" />
  <text x="28" y="206" fill="#111827" font-size="11" text-anchor="middle" font-weight="600">S</text>
  <text x="46" y="206" fill="#111827" font-size="11">SDK 依赖</text>
  <rect x="176" y="194" width="24" height="16" rx="4" fill="#FFFFFF" stroke="#FFFFFF" stroke-width="1.5" />
  <text x="188" y="206" fill="#2563EB" font-size="11" text-anchor="middle" font-weight="600">5</text>
  <!-- Nav 4: MCP 服务器 -->
  <rect x="8" y="228" width="204" height="36" rx="4" fill="none" />
  <circle cx="28" cy="246" r="10" fill="#FFFFFF" stroke="#111827" stroke-width="1.5" />
  <text x="28" y="250" fill="#111827" font-size="11" text-anchor="middle" font-weight="600">M</text>
  <text x="46" y="250" fill="#111827" font-size="11">MCP 服务器</text>
  <rect x="176" y="238" width="24" height="16" rx="4" fill="#FFFFFF" stroke="#FFFFFF" stroke-width="1.5" />
  <text x="188" y="250" fill="#2563EB" font-size="11" text-anchor="middle" font-weight="600">2</text>
  <!-- Nav 5: Agents -->
  <rect x="8" y="272" width="204" height="36" rx="4" fill="none" />
  <circle cx="28" cy="290" r="10" fill="#FFFFFF" stroke="#111827" stroke-width="1.5" />
  <text x="28" y="294" fill="#111827" font-size="11" text-anchor="middle" font-weight="600">A</text>
  <text x="46" y="294" fill="#111827" font-size="11">Agents</text>
  <rect x="176" y="282" width="24" height="16" rx="4" fill="#FFFFFF" stroke="#FFFFFF" stroke-width="1.5" />
  <text x="188" y="294" fill="#2563EB" font-size="11" text-anchor="middle" font-weight="600">4</text>
  <!-- Nav 6: Skills -->
  <rect x="8" y="316" width="204" height="36" rx="4" fill="none" />
  <circle cx="28" cy="334" r="10" fill="#FFFFFF" stroke="#111827" stroke-width="1.5" />
  <text x="28" y="338" fill="#111827" font-size="11" text-anchor="middle" font-weight="600">K</text>
  <text x="46" y="338" fill="#111827" font-size="11">Skills</text>
  <rect x="176" y="326" width="24" height="16" rx="4" fill="#FFFFFF" stroke="#FFFFFF" stroke-width="1.5" />
  <text x="188" y="338" fill="#2563EB" font-size="11" text-anchor="middle" font-weight="600">8</text>
  <!-- Divider -->
  <line x1="16" y1="366" x2="204" y2="366" stroke="#111827" stroke-width="1.5" fill="none" />
  <!-- Version info at sidebar bottom -->
  <rect x="8" y="814" width="204" height="30" rx="4" fill="#FFFFFF" />
  <text x="16" y="833" fill="#111827" font-size="11">VaneHub AI v0.1.0</text>
  <!-- ==================== RIGHT CONTENT AREA ==================== -->
  <rect x="220" y="48" width="980" height="802" fill="#FFFFFF" />
  <!-- Content area inner padding -->
  <g transform="translate(236, 60)">
    <!-- Breadcrumb -->
    <text x="0" y="12" fill="#111827" font-size="11">设置</text>
    <text x="30" y="12" fill="#111827" font-size="11">/</text>
    <text x="40" y="12" fill="#111827" font-size="11" font-weight="600">供应商管理</text>
    <!-- ===== FILTER TABS + ADD BUTTON ===== -->
    <!-- Tab: 全部 (active) -->
    <rect x="0" y="26" width="80" height="28" rx="4" fill="#FFFFFF" stroke="#2563EB" stroke-width="1.5" />
    <text x="40" y="44" fill="#2563EB" font-size="11" text-anchor="middle" font-weight="600">全部 (3)</text>
    <!-- Tab: 已启用 -->
    <rect x="88" y="26" width="80" height="28" rx="4" fill="none" stroke="#111827" stroke-width="1.5" />
    <text x="128" y="44" fill="#111827" font-size="11" text-anchor="middle">已启用 (2)</text>
    <!-- Tab: 已禁用 -->
    <rect x="176" y="26" width="80" height="28" rx="4" fill="none" stroke="#111827" stroke-width="1.5" />
    <text x="216" y="44" fill="#111827" font-size="11" text-anchor="middle">已禁用 (1)</text>
    <!-- Add provider button -->
    <rect x="856" y="26" width="110" height="28" rx="4" fill="#2563EB" />
    <text x="911" y="44" fill="#111827" font-size="11" text-anchor="middle" font-weight="600">+ 添加供应商</text>
    <!-- ===== PROVIDER CARD 1: 智谱 AI (active, running) ===== -->
    <g transform="translate(0, 68)">
      <!-- Card background with glow border (active) -->
      <rect x="0" y="0" width="484" height="190" rx="4" fill="#FFFFFF" stroke="#2563EB" stroke-width="1.5" />
      <!-- Top accent line -->
      <rect x="0" y="0" width="484" height="1" rx="0" fill="#2563EB" />
      <!-- Header row -->
      <circle cx="22" cy="24" r="14" fill="#FFFFFF" stroke="#2563EB" stroke-width="1.5" />
      <text x="22" y="28" fill="#2563EB" font-size="11" text-anchor="middle" font-weight="700">Z</text>
      <text x="44" y="28" fill="#111827" font-size="12" font-weight="700">智谱 AI</text>
      <text x="104" y="28" fill="#111827" font-size="11">Zhipu AI</text>
      <!-- Status: 运行中 green dot -->
      <circle cx="390" cy="22" r="4" fill="#2563EB" />
      <text x="400" y="27" fill="#2563EB" font-size="11">运行中</text>
      <!-- Toggle: ON -->
      <rect x="432" y="12" width="40" height="20" rx="4" fill="#2563EB" />
      <circle cx="462" cy="22" r="7" fill="#FFFFFF" />
      <!-- Models -->
      <text x="14" y="54" fill="#111827" font-size="11">模型</text>
      <rect x="56" y="42" width="72" height="18" rx="4" fill="#FFFFFF" stroke="#FFFFFF" stroke-width="1.5" />
      <text x="92" y="55" fill="#2563EB" font-size="11" text-anchor="middle">GLM-4.5</text>
      <rect x="134" y="42" width="60" height="18" rx="4" fill="#FFFFFF" stroke="#FFFFFF" stroke-width="1.5" />
      <text x="164" y="55" fill="#2563EB" font-size="11" text-anchor="middle">GLM-4</text>
      <!-- API Key -->
      <text x="14" y="80" fill="#111827" font-size="11">API Key</text>
      <rect x="80" y="68" width="260" height="20" rx="4" fill="#FFFFFF" stroke="#111827" stroke-width="1.5" />
      <text x="90" y="82" fill="#111827" font-size="11">sk-••••••••••••••••••3f7a</text>
      <!-- Configured indicator -->
      <circle cx="354" cy="78" r="4" fill="#2563EB" />
      <text x="364" y="82" fill="#2563EB" font-size="11">已配置</text>
      <!-- Base URL -->
      <text x="14" y="106" fill="#111827" font-size="11">端点</text>
      <rect x="80" y="94" width="340" height="20" rx="4" fill="#FFFFFF" stroke="#111827" stroke-width="1.5" />
      <text x="90" y="108" fill="#111827" font-size="11">https://open.bigmodel.cn/api/paas/v4</text>
      <!-- Action buttons -->
      <rect x="14" y="130" width="64" height="26" rx="4" fill="#FFFFFF" stroke="#111827" stroke-width="1.5" />
      <text x="46" y="147" fill="#111827" font-size="11" text-anchor="middle">配置</text>
      <rect x="86" y="130" width="64" height="26" rx="4" fill="#FFFFFF" stroke="#111827" stroke-width="1.5" />
      <text x="118" y="147" fill="#111827" font-size="11" text-anchor="middle">测试</text>
      <rect x="158" y="130" width="64" height="26" rx="4" fill="#FFFFFF" stroke="#FFFFFF" stroke-width="1.5" />
      <text x="190" y="147" fill="#2563EB" font-size="11" text-anchor="middle">删除</text>
      <!-- Priority badge -->
      <text x="420" y="147" fill="#111827" font-size="11">优先级</text>
      <rect x="452" y="134" width="22" height="18" rx="4" fill="#FFFFFF" stroke="#FFFFFF" stroke-width="1.5" />
      <text x="463" y="147" fill="#2563EB" font-size="11" text-anchor="middle" font-weight="600">1</text>
      <!-- Latency info -->
      <text x="14" y="170" fill="#111827" font-size="11">平均延迟: </text>
      <text x="64" y="170" fill="#2563EB" font-size="11" font-weight="600">128ms</text>
      <text x="100" y="170" fill="#111827" font-size="11">| 成功率: </text>
      <text x="148" y="170" fill="#2563EB" font-size="11" font-weight="600">99.2%</text>
    </g>
    <!-- ===== PROVIDER CARD 2: Anthropic (active, idle) ===== -->
    <g transform="translate(496, 68)">
      <!-- Card background -->
      <rect x="0" y="0" width="484" height="190" rx="4" fill="#FFFFFF" stroke="#111827" stroke-width="1.5" />
      <rect x="0" y="0" width="484" height="1" rx="0" fill="#2563EB" />
      <!-- Header row -->
      <circle cx="22" cy="24" r="14" fill="#FFFFFF" stroke="#111827" stroke-width="1.5" />
      <text x="22" y="28" fill="#111827" font-size="11" text-anchor="middle" font-weight="700">A</text>
      <text x="44" y="28" fill="#111827" font-size="12" font-weight="700">Anthropic</text>
      <!-- Status: 空闲 yellow dot -->
      <circle cx="390" cy="22" r="4" fill="#2563EB" />
      <text x="400" y="27" fill="#2563EB" font-size="11">空闲</text>
      <!-- Toggle: ON -->
      <rect x="432" y="12" width="40" height="20" rx="4" fill="#2563EB" />
      <circle cx="462" cy="22" r="7" fill="#FFFFFF" />
      <!-- Models -->
      <text x="14" y="54" fill="#111827" font-size="11">模型</text>
      <rect x="56" y="42" width="80" height="18" rx="4" fill="#FFFFFF" stroke="#FFFFFF" stroke-width="1.5" />
      <text x="96" y="55" fill="#111827" font-size="11" text-anchor="middle">Claude-3.5</text>
      <rect x="142" y="42" width="68" height="18" rx="4" fill="#FFFFFF" stroke="#FFFFFF" stroke-width="1.5" />
      <text x="176" y="55" fill="#111827" font-size="11" text-anchor="middle">Claude-3</text>
      <!-- API Key -->
      <text x="14" y="80" fill="#111827" font-size="11">API Key</text>
      <rect x="80" y="68" width="260" height="20" rx="4" fill="#FFFFFF" stroke="#111827" stroke-width="1.5" />
      <text x="90" y="82" fill="#111827" font-size="11">sk-ant-•••••••••••••7c2d</text>
      <circle cx="354" cy="78" r="4" fill="#2563EB" />
      <text x="364" y="82" fill="#2563EB" font-size="11">已配置</text>
      <!-- Base URL -->
      <text x="14" y="106" fill="#111827" font-size="11">端点</text>
      <rect x="80" y="94" width="340" height="20" rx="4" fill="#FFFFFF" stroke="#111827" stroke-width="1.5" />
      <text x="90" y="108" fill="#111827" font-size="11">https://api.anthropic.com/v1</text>
      <!-- Action buttons -->
      <rect x="14" y="130" width="64" height="26" rx="4" fill="#FFFFFF" stroke="#111827" stroke-width="1.5" />
      <text x="46" y="147" fill="#111827" font-size="11" text-anchor="middle">配置</text>
      <rect x="86" y="130" width="64" height="26" rx="4" fill="#FFFFFF" stroke="#111827" stroke-width="1.5" />
      <text x="118" y="147" fill="#111827" font-size="11" text-anchor="middle">测试</text>
      <rect x="158" y="130" width="64" height="26" rx="4" fill="#FFFFFF" stroke="#FFFFFF" stroke-width="1.5" />
      <text x="190" y="147" fill="#2563EB" font-size="11" text-anchor="middle">删除</text>
      <!-- Priority badge -->
      <text x="420" y="147" fill="#111827" font-size="11">优先级</text>
      <rect x="452" y="134" width="22" height="18" rx="4" fill="#FFFFFF" stroke="#FFFFFF" stroke-width="1.5" />
      <text x="463" y="147" fill="#111827" font-size="11" text-anchor="middle" font-weight="600">2</text>
      <!-- Latency info -->
      <text x="14" y="170" fill="#111827" font-size="11">平均延迟: </text>
      <text x="64" y="170" fill="#2563EB" font-size="11" font-weight="600">342ms</text>
      <text x="100" y="170" fill="#111827" font-size="11">| 成功率: </text>
      <text x="148" y="170" fill="#2563EB" font-size="11" font-weight="600">97.8%</text>
    </g>
    <!-- ===== PROVIDER CARD 3: OpenAI (disabled) ===== -->
    <g transform="translate(0, 274)">
      <!-- Card background -->
      <rect x="0" y="0" width="484" height="190" rx="4" fill="#FFFFFF" stroke="#111827" stroke-width="1.5" />
      <!-- Header row -->
      <circle cx="22" cy="24" r="14" fill="#FFFFFF" stroke="#111827" stroke-width="1.5" />
      <text x="22" y="28" fill="#111827" font-size="11" text-anchor="middle" font-weight="700">O</text>
      <text x="44" y="28" fill="#111827" font-size="12" font-weight="700">OpenAI</text>
      <!-- Status: 已禁用 gray -->
      <circle cx="390" cy="22" r="4" fill="#FFFFFF" />
      <text x="400" y="27" fill="#111827" font-size="11">已禁用</text>
      <!-- Toggle: OFF -->
      <rect x="432" y="12" width="40" height="20" rx="4" fill="#FFFFFF" />
      <circle cx="442" cy="22" r="7" fill="#FFFFFF" />
      <!-- Models -->
      <text x="14" y="54" fill="#111827" font-size="11">模型</text>
      <rect x="56" y="42" width="60" height="18" rx="4" fill="#FFFFFF" stroke="#111827" stroke-width="1.5" />
      <text x="86" y="55" fill="#111827" font-size="11" text-anchor="middle">GPT-4o</text>
      <rect x="122" y="42" width="52" height="18" rx="4" fill="#FFFFFF" stroke="#111827" stroke-width="1.5" />
      <text x="148" y="55" fill="#111827" font-size="11" text-anchor="middle">GPT-4</text>
      <!-- API Key (not configured) -->
      <text x="14" y="80" fill="#111827" font-size="11">API Key</text>
      <rect x="80" y="68" width="260" height="20" rx="4" fill="#FFFFFF" stroke="#111827" stroke-width="1.5" />
      <text x="90" y="82" fill="#111827" font-size="11">未配置 API Key</text>
      <!-- Warning icon -->
      <circle cx="354" cy="78" r="4" fill="#2563EB" />
      <text x="364" y="82" fill="#2563EB" font-size="11">未配置</text>
      <!-- Base URL -->
      <text x="14" y="106" fill="#111827" font-size="11">端点</text>
      <rect x="80" y="94" width="340" height="20" rx="4" fill="#FFFFFF" stroke="#111827" stroke-width="1.5" />
      <text x="90" y="108" fill="#111827" font-size="11">https://api.openai.com/v1</text>
      <!-- Action buttons -->
      <rect x="14" y="130" width="64" height="26" rx="4" fill="#FFFFFF" stroke="#111827" stroke-width="1.5" />
      <text x="46" y="147" fill="#111827" font-size="11" text-anchor="middle">配置</text>
      <rect x="86" y="130" width="64" height="26" rx="4" fill="#FFFFFF" stroke="#111827" stroke-width="1.5" />
      <text x="118" y="147" fill="#111827" font-size="11" text-anchor="middle">测试</text>
      <rect x="158" y="130" width="64" height="26" rx="4" fill="#FFFFFF" stroke="#FFFFFF" stroke-width="1.5" />
      <text x="190" y="147" fill="#2563EB" font-size="11" text-anchor="middle">删除</text>
      <!-- Priority badge -->
      <text x="420" y="147" fill="#111827" font-size="11">优先级</text>
      <rect x="452" y="134" width="22" height="18" rx="4" fill="#FFFFFF" stroke="#111827" stroke-width="1.5" />
      <text x="463" y="147" fill="#111827" font-size="11" text-anchor="middle" font-weight="600">3</text>
      <!-- No data notice -->
      <text x="14" y="170" fill="#111827" font-size="11">无连接数据 — 请先配置 API Key 并启用供应商</text>
    </g>
    <!-- ===== ADD PLACEHOLDER CARD ===== -->
    <g transform="translate(496, 274)">
      <rect x="0" y="0" width="484" height="190" rx="4" fill="none" stroke="#111827" stroke-width="1.5" stroke-dasharray="8,4" />
      <!-- Plus icon circle -->
      <circle cx="242" cy="78" r="20" fill="#FFFFFF" stroke="#FFFFFF" stroke-width="1.5" />
      <text x="242" y="84" fill="#2563EB" font-size="16" text-anchor="middle" font-weight="300">+</text>
      <text x="242" y="116" fill="#111827" font-size="11" text-anchor="middle">添加新供应商</text>
      <text x="242" y="134" fill="#111827" font-size="11" text-anchor="middle">支持 OpenAI / Anthropic / 智谱 / 自定义</text>
    </g>
    <!-- ===== ROUTING STRATEGY SECTION ===== -->
    <g transform="translate(0, 484)">
      <rect x="0" y="0" width="980" height="140" rx="4" fill="#FFFFFF" stroke="#111827" stroke-width="1.5" />
      <!-- Section header -->
      <rect x="0" y="0" width="980" height="1" fill="#2563EB" />
      <text x="14" y="24" fill="#111827" font-size="12" font-weight="600">路由策略</text>
      <text x="14" y="40" fill="#111827" font-size="11">多供应商环境下的模型路由与故障处理策略</text>
      <!-- Row 1 -->
      <text x="14" y="68" fill="#111827" font-size="11">默认供应商</text>
      <rect x="110" y="54" width="140" height="24" rx="4" fill="#FFFFFF" stroke="#111827" stroke-width="1.5" />
      <text x="120" y="70" fill="#111827" font-size="11">智谱 AI</text>
      <text x="236" y="70" fill="#111827" font-size="11">▾</text>
      <text x="270" y="68" fill="#111827" font-size="11">负载均衡</text>
      <rect x="350" y="54" width="140" height="24" rx="4" fill="#FFFFFF" stroke="#111827" stroke-width="1.5" />
      <text x="360" y="70" fill="#111827" font-size="11">轮询</text>
      <text x="476" y="70" fill="#111827" font-size="11">▾</text>
      <text x="510" y="68" fill="#111827" font-size="11">故障转移</text>
      <!-- Toggle: ON -->
      <rect x="580" y="56" width="40" height="20" rx="4" fill="#2563EB" />
      <circle cx="610" cy="66" r="7" fill="#FFFFFF" />
      <text x="628" y="70" fill="#2563EB" font-size="11">已启用</text>
      <!-- Row 2 -->
      <text x="14" y="104" fill="#111827" font-size="11">超时时间</text>
      <rect x="110" y="90" width="100" height="24" rx="4" fill="#FFFFFF" stroke="#111827" stroke-width="1.5" />
      <text x="120" y="106" fill="#111827" font-size="11">30 秒</text>
      <text x="270" y="104" fill="#111827" font-size="11">重试次数</text>
      <rect x="350" y="90" width="100" height="24" rx="4" fill="#FFFFFF" stroke="#111827" stroke-width="1.5" />
      <text x="360" y="106" fill="#111827" font-size="11">3 次</text>
      <!-- Help text -->
      <text x="510" y="104" fill="#111827" font-size="11">故障转移: 当主供应商不可用时自动切换至备用供应商</text>
      <!-- Save button -->
      <rect x="874" y="90" width="92" height="28" rx="4" fill="#2563EB" />
      <text x="920" y="108" fill="#111827" font-size="11" text-anchor="middle" font-weight="600">保存策略</text>
    </g>
  </g>
  <!-- ==================== BOTTOM STATUS BAR ==================== -->
  <rect x="0" y="850" width="1200" height="50" fill="#FFFFFF" />
  <line x1="0" y1="850" x2="1200" y2="850" stroke="#111827" stroke-width="1.5" fill="none" />
  <!-- Status indicators -->
  <circle cx="16" cy="876" r="4" fill="#2563EB" />
  <text x="26" y="880" fill="#111827" font-size="11">2/3 供应商已启用</text>
  <text x="164" y="880" fill="#111827" font-size="11">|</text>
  <circle cx="180" cy="876" r="4" fill="#2563EB" />
  <text x="190" y="880" fill="#111827" font-size="11">1 空闲</text>
  <text x="246" y="880" fill="#111827" font-size="11">|</text>
  <text x="260" y="880" fill="#111827" font-size="11">活跃模型: 8</text>
  <!-- Right side version -->
  <text x="1150" y="880" fill="#111827" font-size="11" text-anchor="end">VaneHub AI v0.1.0</text>
</svg>