<?xml version="1.0" encoding="UTF-8"?>
<svg xmlns="http://www.w3.org/2000/svg" viewBox="0 0 1200 820" font-family="Inter, Microsoft YaHei, monospace">
  <defs>
    <linearGradient id="bgGrad" x1="0" y1="0" x2="0" y2="1">
      <stop offset="0%" stop-color="#0d1117"/>
      <stop offset="100%" stop-color="#161b22"/>
    </linearGradient>
    <linearGradient id="sliderTrack" x1="0" y1="0" x2="1" y2="0">
      <stop offset="0%" stop-color="#1a2332"/>
      <stop offset="100%" stop-color="#2d3548"/>
    </linearGradient>
    <filter id="glow">
      <feGaussianBlur stdDeviation="2" result="blur"/>
      <feMerge><feMergeNode in="blur"/><feMergeNode in="SourceGraphic"/></feMerge>
    </filter>
    <filter id="panelShadow" x="-1%" y="-1%" width="102%" height="102%">
      <feDropShadow dx="0" dy="2" stdDeviation="4" flood-color="#000000" flood-opacity="0.3"/>
    </filter>
    <clipPath id="navClip"><rect x="10" y="58" width="230" height="700" rx="8"/></clipPath>
  </defs>

  <!-- ========== BACKGROUND ========== -->
  <rect width="1200" height="820" fill="url(#bgGrad)"/>

  <!-- ========== TOP NAVIGATION BAR ========== -->
  <rect x="10" y="10" width="1180" height="44" fill="rgba(22,27,34,0.85)" stroke="#2d3548" stroke-width="1" rx="6"/>
  <!-- Blue highlight line at top -->
  <rect x="10" y="10" width="1180" height="2" fill="#5b9cf5" rx="1"/>

  <!-- Logo -->
  <rect x="20" y="20" width="28" height="28" fill="none" stroke="#5b9cf5" stroke-width="1.5" rx="6"/>
  <text x="27" y="39" fill="#5b9cf5" font-size="13" font-weight="bold" text-anchor="middle">V</text>
  <text x="56" y="38" fill="#e6edf3" font-size="14" font-weight="bold">VaneHub AI</text>
  <text x="148" y="38" fill="#6e7681" font-size="10">/</text>
  <text x="158" y="38" fill="#8b949e" font-size="10">设置</text>
  <text x="190" y="38" fill="#6e7681" font-size="10">/</text>
  <text x="200" y="38" fill="#e6edf3" font-size="10" font-weight="bold">基础配置</text>

  <!-- Search -->
  <rect x="720" y="20" width="220" height="26" fill="#0d1117" stroke="#2d3548" stroke-width="1" rx="4"/>
  <text x="734" y="37" fill="#6e7681" font-size="10">搜索设置项...</text>
  <circle cx="926" cy="33" r="8" fill="none" stroke="#6e7681" stroke-width="1"/>
  <line x1="932" y1="38" x2="936" y2="42" stroke="#6e7681" stroke-width="1"/>

  <!-- Return button -->
  <rect x="1132" y="20" width="48" height="26" fill="#2d3548" stroke="#3d4a5c" stroke-width="1" rx="4"/>
  <text x="1156" y="37" fill="#8b949e" font-size="10" text-anchor="middle">返回</text>

  <!-- ========== LEFT SIDEBAR ========== -->
  <rect x="10" y="58" width="230" height="700" fill="rgba(22,27,34,0.85)" stroke="#2d3548" stroke-width="1" rx="8" filter="url(#panelShadow)"/>

  <!-- Sidebar title -->
  <text x="28" y="86" fill="#8b949e" font-size="10" font-weight="bold" letter-spacing="2">系统设置</text>
  <line x1="20" y1="96" x2="230" y2="96" stroke="#2d3548" stroke-width="1"/>

  <!-- Nav item 1: 基础配置 (ACTIVE) -->
  <rect x="14" y="106" width="222" height="38" fill="rgba(91,156,245,0.1)" rx="6"/>
  <!-- Left blue indicator bar -->
  <rect x="14" y="106" width="3" height="38" fill="#5b9cf5" rx="1"/>
  <!-- Icon: gear -->
  <circle cx="38" cy="125" r="8" fill="none" stroke="#5b9cf5" stroke-width="1.2"/>
  <circle cx="38" cy="125" r="3" fill="#5b9cf5"/>
  <text x="54" y="130" fill="#5b9cf5" font-size="12" font-weight="bold">基础配置</text>
  <!-- Active indicator -->
  <circle cx="224" cy="125" r="3" fill="#5b9cf5" filter="url(#glow)"/>

  <!-- Nav item 2: 供应商管理 -->
  <rect x="14" y="150" width="222" height="38" fill="transparent" rx="6"/>
  <rect x="30" y="161" width="16" height="10" fill="none" stroke="#8b949e" stroke-width="1" rx="2"/>
  <rect x="33" y="164" width="4" height="4" fill="#8b949e" rx="1"/>
  <rect x="39" y="164" width="4" height="4" fill="#8b949e" rx="1"/>
  <text x="54" y="174" fill="#e6edf3" font-size="12">供应商管理</text>
  <circle cx="222" cy="169" r="9" fill="#f85149"/><text x="222" y="172" fill="#ffffff" font-size="8" text-anchor="middle" font-weight="bold">3</text>

  <!-- Nav item 3: SDK 依赖 -->
  <rect x="14" y="194" width="222" height="38" fill="transparent" rx="6"/>
  <rect x="30" y="205" width="16" height="10" fill="none" stroke="#8b949e" stroke-width="1" rx="2"/>
  <line x1="34" y1="208" x2="42" y2="208" stroke="#8b949e" stroke-width="1"/>
  <text x="54" y="218" fill="#e6edf3" font-size="12">SDK 依赖</text>
  <circle cx="222" cy="213" r="9" fill="#f85149"/><text x="222" y="216" fill="#ffffff" font-size="8" text-anchor="middle" font-weight="bold">5</text>

  <!-- Nav item 4: MCP 服务器 -->
  <rect x="14" y="238" width="222" height="38" fill="transparent" rx="6"/>
  <circle cx="38" cy="257" r="7" fill="none" stroke="#8b949e" stroke-width="1"/>
  <circle cx="38" cy="257" r="3" fill="none" stroke="#8b949e" stroke-width="0.8"/>
  <text x="54" y="262" fill="#e6edf3" font-size="12">MCP 服务器</text>
  <circle cx="222" cy="257" r="9" fill="#3fb950"/><text x="222" y="260" fill="#ffffff" font-size="8" text-anchor="middle" font-weight="bold">2</text>

  <!-- Nav item 5: Agents -->
  <rect x="14" y="282" width="222" height="38" fill="transparent" rx="6"/>
  <rect x="31" y="293" width="14" height="14" fill="none" stroke="#8b949e" stroke-width="1" rx="3"/>
  <circle cx="38" cy="300" r="3" fill="none" stroke="#8b949e" stroke-width="0.8"/>
  <text x="54" y="306" fill="#e6edf3" font-size="12">Agents</text>
  <circle cx="222" cy="301" r="9" fill="#f85149"/><text x="222" y="304" fill="#ffffff" font-size="8" text-anchor="middle" font-weight="bold">4</text>

  <!-- Nav item 6: Skills -->
  <rect x="14" y="326" width="222" height="38" fill="transparent" rx="6"/>
  <polygon points="38,335 44,349 32,349" fill="none" stroke="#8b949e" stroke-width="1"/>
  <text x="54" y="350" fill="#e6edf3" font-size="12">Skills</text>
  <circle cx="222" cy="345" r="9" fill="#f85149"/><text x="222" y="348" fill="#ffffff" font-size="8" text-anchor="middle" font-weight="bold">8</text>

  <!-- Sidebar divider -->
  <line x1="20" y1="380" x2="230" y2="380" stroke="#2d3548" stroke-width="1"/>

  <!-- Quick actions -->
  <text x="28" y="402" fill="#6e7681" font-size="9" font-weight="bold" letter-spacing="1">快捷操作</text>
  <rect x="18" y="414" width="214" height="28" fill="rgba(210,153,34,0.08)" stroke="rgba(210,153,34,0.3)" stroke-width="1" rx="4"/>
  <text x="28" y="432" fill="#d29922" font-size="10">重置所有设置为默认值</text>

  <rect x="18" y="448" width="214" height="28" fill="rgba(91,156,245,0.08)" stroke="rgba(91,156,245,0.2)" stroke-width="1" rx="4"/>
  <text x="28" y="466" fill="#5b9cf5" font-size="10">导出当前配置</text>

  <rect x="18" y="482" width="214" height="28" fill="rgba(91,156,245,0.08)" stroke="rgba(91,156,245,0.2)" stroke-width="1" rx="4"/>
  <text x="28" y="500" fill="#5b9cf5" font-size="10">导入配置文件</text>

  <!-- Sidebar version -->
  <rect x="18" y="700" width="214" height="50" fill="rgba(13,17,23,0.6)" stroke="#2d3548" stroke-width="0.5" rx="4"/>
  <text x="28" y="720" fill="#6e7681" font-size="9">VaneHub AI v0.1.0</text>
  <text x="28" y="736" fill="#6e7681" font-size="9">Build 2026-07-14</text>

  <!-- ========== RIGHT CONTENT AREA ========== -->
  <rect x="246" y="58" width="944" height="700" fill="rgba(22,27,34,0.85)" stroke="#2d3548" stroke-width="1" rx="8" filter="url(#panelShadow)"/>

  <!-- Breadcrumb -->
  <text x="262" y="82" fill="#6e7681" font-size="10">设置</text>
  <text x="294" y="82" fill="#3d4a5c" font-size="10">/</text>
  <text x="304" y="82" fill="#e6edf3" font-size="10" font-weight="bold">基础配置</text>

  <!-- ===== SECTION 1: 通用设置 ===== -->
  <rect x="260" y="96" width="916" height="236" fill="rgba(33,40,59,0.6)" stroke="#2d3548" stroke-width="1" rx="6"/>

  <!-- Section header -->
  <rect x="260" y="96" width="916" height="28" fill="rgba(91,156,245,0.06)" rx="6"/>
  <rect x="260" y="118" width="916" height="6" fill="rgba(91,156,245,0.06)"/>
  <rect x="272" y="104" width="3" height="12" fill="#5b9cf5" rx="1"/>
  <text x="284" y="115" fill="#e6edf3" font-size="12" font-weight="bold">通用设置</text>
  <text x="360" y="115" fill="#6e7681" font-size="9">应用程序的基础参数与行为配置</text>

  <!-- 应用名称 -->
  <text x="276" y="150" fill="#8b949e" font-size="10">应用名称</text>
  <rect x="420" y="138" width="260" height="24" fill="#0d1117" stroke="#2d3548" stroke-width="1" rx="4"/>
  <text x="430" y="155" fill="#e6edf3" font-size="10">VaneHub AI</text>

  <!-- 应用语言 -->
  <text x="740" y="150" fill="#8b949e" font-size="10">应用语言</text>
  <rect x="820" y="138" width="180" height="24" fill="#0d1117" stroke="#2d3548" stroke-width="1" rx="4"/>
  <text x="830" y="155" fill="#e6edf3" font-size="10">简体中文</text>
  <text x="988" y="155" fill="#6e7681" font-size="8">&#9662;</text>

  <!-- 主题模式 -->
  <text x="276" y="186" fill="#8b949e" font-size="10">主题模式</text>
  <!-- Deep dark selected -->
  <rect x="420" y="174" width="72" height="24" fill="#5b9cf5" stroke="#5b9cf5" stroke-width="1" rx="4"/>
  <text x="456" y="190" fill="#ffffff" font-size="9" text-anchor="middle" font-weight="bold">深色</text>
  <!-- Light -->
  <rect x="498" y="174" width="72" height="24" fill="#2d3548" stroke="#3d4a5c" stroke-width="1" rx="4"/>
  <text x="534" y="190" fill="#8b949e" font-size="9" text-anchor="middle">浅色</text>
  <!-- Follow system -->
  <rect x="576" y="174" width="80" height="24" fill="#2d3548" stroke="#3d4a5c" stroke-width="1" rx="4"/>
  <text x="616" y="190" fill="#8b949e" font-size="9" text-anchor="middle">跟随系统</text>

  <!-- 字体大小 -->
  <text x="740" y="186" fill="#8b949e" font-size="10">字体大小</text>
  <rect x="820" y="174" width="80" height="24" fill="#0d1117" stroke="#2d3548" stroke-width="1" rx="4"/>
  <text x="830" y="191" fill="#e6edf3" font-size="10">14px</text>
  <text x="892" y="191" fill="#6e7681" font-size="8">&#9662;</text>

  <!-- 自动保存 Toggle ON -->
  <text x="276" y="222" fill="#8b949e" font-size="10">自动保存</text>
  <rect x="420" y="210" width="36" height="20" fill="#5b9cf5" rx="10"/>
  <circle cx="448" cy="220" r="7" fill="#ffffff"/>
  <text x="464" y="224" fill="#6e7681" font-size="9">每 30 秒自动保存会话</text>

  <!-- 启动恢复 Toggle ON -->
  <text x="276" y="254" fill="#8b949e" font-size="10">启动恢复</text>
  <rect x="420" y="242" width="36" height="20" fill="#5b9cf5" rx="10"/>
  <circle cx="448" cy="252" r="7" fill="#ffffff"/>
  <text x="464" y="256" fill="#6e7681" font-size="9">启动时恢复上次会话状态</text>

  <!-- 自动检查更新 Toggle ON -->
  <text x="740" y="222" fill="#8b949e" font-size="10">自动检查更新</text>
  <rect x="860" y="210" width="36" height="20" fill="#5b9cf5" rx="10"/>
  <circle cx="888" cy="220" r="7" fill="#ffffff"/>
  <text x="904" y="224" fill="#6e7681" font-size="9">每日检查新版本</text>

  <!-- 匿名使用统计 Toggle OFF -->
  <text x="740" y="254" fill="#8b949e" font-size="10">匿名使用统计</text>
  <rect x="860" y="242" width="36" height="20" fill="#484f58" rx="10"/>
  <circle cx="872" cy="252" r="7" fill="#ffffff"/>
  <text x="904" y="256" fill="#6e7681" font-size="9">帮助改进产品</text>

  <!-- Divider within section -->
  <line x1="276" y1="272" x2="1160" y2="272" stroke="#2d3548" stroke-width="0.5"/>
  <!-- Status hint row -->
  <text x="276" y="290" fill="#3fb950" font-size="9">&#9679;</text>
  <text x="288" y="290" fill="#6e7681" font-size="9">自动保存已启用 - 配置变更将实时同步</text>
  <text x="740" y="290" fill="#6e7681" font-size="9">上次自动保存: 14:32:07</text>

  <!-- ===== SECTION 2: 模型参数 ===== -->
  <rect x="260" y="342" width="916" height="216" fill="rgba(33,40,59,0.6)" stroke="#2d3548" stroke-width="1" rx="6"/>

  <rect x="260" y="342" width="916" height="28" fill="rgba(91,156,245,0.06)" rx="6"/>
  <rect x="260" y="364" width="916" height="6" fill="rgba(91,156,245,0.06)"/>
  <rect x="272" y="350" width="3" height="12" fill="#5b9cf5" rx="1"/>
  <text x="284" y="361" fill="#e6edf3" font-size="12" font-weight="bold">模型参数</text>
  <text x="360" y="361" fill="#6e7681" font-size="9">全局默认模型推理参数，可在会话级别覆盖</text>

  <!-- 默认模型 -->
  <text x="276" y="396" fill="#8b949e" font-size="10">默认模型</text>
  <rect x="420" y="384" width="200" height="24" fill="#0d1117" stroke="#2d3548" stroke-width="1" rx="4"/>
  <text x="430" y="401" fill="#e6edf3" font-size="10">GLM-4.5</text>
  <text x="608" y="401" fill="#6e7681" font-size="8">&#9662;</text>

  <!-- 备用模型 -->
  <text x="740" y="396" fill="#8b949e" font-size="10">备用模型</text>
  <rect x="820" y="384" width="200" height="24" fill="#0d1117" stroke="#2d3548" stroke-width="1" rx="4"/>
  <text x="830" y="401" fill="#e6edf3" font-size="10">Claude-3.5</text>
  <text x="1008" y="401" fill="#6e7681" font-size="8">&#9662;</text>

  <!-- 温度 Slider 0.7 -->
  <text x="276" y="432" fill="#8b949e" font-size="10">温度 (Temperature)</text>
  <rect x="420" y="420" width="280" height="24" fill="#0d1117" stroke="#2d3548" stroke-width="1" rx="4"/>
  <!-- Slider track -->
  <rect x="430" y="432" width="260" height="4" fill="#2d3548" rx="2"/>
  <!-- Slider filled -->
  <rect x="430" y="432" width="182" height="4" fill="#5b9cf5" rx="2"/>
  <!-- Slider knob -->
  <circle cx="612" cy="434" r="6" fill="#5b9cf5" stroke="#0d1117" stroke-width="2"/>
  <!-- Value -->
  <text x="710" y="438" fill="#5b9cf5" font-size="11" font-weight="bold">0.7</text>

  <!-- 最大输出Token -->
  <text x="276" y="468" fill="#8b949e" font-size="10">最大输出 Token</text>
  <rect x="420" y="456" width="120" height="24" fill="#0d1117" stroke="#2d3548" stroke-width="1" rx="4"/>
  <text x="430" y="473" fill="#e6edf3" font-size="10">4096</text>

  <!-- 上下文窗口 -->
  <text x="580" y="468" fill="#8b949e" font-size="10">上下文窗口</text>
  <rect x="680" y="456" width="120" height="24" fill="#0d1117" stroke="#2d3548" stroke-width="1" rx="4"/>
  <text x="690" y="473" fill="#e6edf3" font-size="10">8192</text>

  <!-- Top P Slider 0.9 -->
  <text x="276" y="504" fill="#8b949e" font-size="10">Top P</text>
  <rect x="420" y="492" width="280" height="24" fill="#0d1117" stroke="#2d3548" stroke-width="1" rx="4"/>
  <!-- Slider track -->
  <rect x="430" y="504" width="260" height="4" fill="#2d3548" rx="2"/>
  <!-- Slider filled -->
  <rect x="430" y="504" width="234" height="4" fill="#5b9cf5" rx="2"/>
  <!-- Slider knob -->
  <circle cx="664" cy="506" r="6" fill="#5b9cf5" stroke="#0d1117" stroke-width="2"/>
  <!-- Value -->
  <text x="710" y="510" fill="#5b9cf5" font-size="11" font-weight="bold">0.9</text>

  <!-- 频率惩罚 -->
  <text x="740" y="468" fill="#8b949e" font-size="10">频率惩罚</text>
  <rect x="820" y="456" width="80" height="24" fill="#0d1117" stroke="#2d3548" stroke-width="1" rx="4"/>
  <text x="830" y="473" fill="#e6edf3" font-size="10">0.0</text>

  <!-- Model hint -->
  <line x1="276" y1="530" x2="1160" y2="530" stroke="#2d3548" stroke-width="0.5"/>
  <text x="276" y="548" fill="#6e7681" font-size="9">默认模型参数适用于所有新会话，已有会话将保持原有参数设置</text>

  <!-- ===== SECTION 3: 数据与存储 ===== -->
  <rect x="260" y="568" width="916" height="140" fill="rgba(33,40,59,0.6)" stroke="#2d3548" stroke-width="1" rx="6"/>

  <rect x="260" y="568" width="916" height="28" fill="rgba(91,156,245,0.06)" rx="6"/>
  <rect x="260" y="590" width="916" height="6" fill="rgba(91,156,245,0.06)"/>
  <rect x="272" y="576" width="3" height="12" fill="#5b9cf5" rx="1"/>
  <text x="284" y="587" fill="#e6edf3" font-size="12" font-weight="bold">数据与存储</text>
  <text x="360" y="587" fill="#6e7681" font-size="9">数据存储路径与缓存管理</text>

  <!-- 数据目录 -->
  <text x="276" y="622" fill="#8b949e" font-size="10">数据目录</text>
  <rect x="420" y="610" width="520" height="24" fill="#0d1117" stroke="#2d3548" stroke-width="1" rx="4"/>
  <text x="430" y="627" fill="#e6edf3" font-size="10">C:\Users\c00606997\.vanehub-ai\data</text>
  <!-- Browse button -->
  <rect x="948" y="610" width="60" height="24" fill="#2d3548" stroke="#3d4a5c" stroke-width="1" rx="4"/>
  <text x="978" y="627" fill="#8b949e" font-size="10" text-anchor="middle">浏览</text>

  <!-- 缓存大小 -->
  <text x="276" y="656" fill="#8b949e" font-size="10">缓存大小</text>
  <text x="420" y="656" fill="#e6edf3" font-size="10" font-weight="bold">256 MB</text>
  <!-- Danger: 清理缓存 -->
  <rect x="490" y="644" width="80" height="24" fill="rgba(248,81,73,0.1)" stroke="rgba(248,81,73,0.3)" stroke-width="1" rx="4"/>
  <text x="530" y="660" fill="#f85149" font-size="10" text-anchor="middle">清理缓存</text>

  <!-- 日志级别 -->
  <text x="640" y="656" fill="#8b949e" font-size="10">日志级别</text>
  <rect x="720" y="644" width="100" height="24" fill="#0d1117" stroke="#2d3548" stroke-width="1" rx="4"/>
  <text x="730" y="661" fill="#e6edf3" font-size="10">INFO</text>
  <text x="812" y="661" fill="#6e7681" font-size="8">&#9662;</text>

  <!-- 历史保留 -->
  <text x="860" y="656" fill="#8b949e" font-size="10">历史保留</text>
  <rect x="940" y="644" width="80" height="24" fill="#0d1117" stroke="#2d3548" stroke-width="1" rx="4"/>
  <text x="950" y="661" fill="#e6edf3" font-size="10">30 天</text>
  <text x="1012" y="661" fill="#6e7681" font-size="8">&#9662;</text>

  <!-- Storage progress bar -->
  <line x1="276" y1="682" x2="1160" y2="682" stroke="#2d3548" stroke-width="0.5"/>
  <text x="276" y="698" fill="#6e7681" font-size="9">磁盘占用</text>
  <rect x="340" y="690" width="200" height="4" fill="#2d3548" rx="2"/>
  <rect x="340" y="690" width="52" height="4" fill="#3fb950" rx="2"/>
  <text x="548" y="698" fill="#6e7681" font-size="9">256 MB / 1 GB</text>

  <!-- ========== BOTTOM ACTION BAR ========== -->
  <rect x="260" y="716" width="916" height="42" fill="rgba(13,17,23,0.6)" stroke="#2d3548" stroke-width="1" rx="4"/>
  <!-- Auto-save indicator -->
  <circle cx="278" cy="737" r="3" fill="#3fb950"/>
  <text x="288" y="741" fill="#6e7681" font-size="9">修改将自动保存至本地配置文件</text>
  <!-- Reset button -->
  <rect x="990" y="724" width="80" height="28" fill="#2d3548" stroke="#3d4a5c" stroke-width="1" rx="4"/>
  <text x="1030" y="742" fill="#8b949e" font-size="10" text-anchor="middle">重置默认</text>
  <!-- Save button -->
  <rect x="1080" y="724" width="80" height="28" fill="#5b9cf5" rx="4"/>
  <text x="1120" y="742" fill="#ffffff" font-size="10" font-weight="bold" text-anchor="middle">保存</text>

  <!-- ========== BOTTOM STATUS BAR ========== -->
  <rect x="10" y="762" width="1180" height="28" fill="rgba(22,27,34,0.9)" stroke="#2d3548" stroke-width="1" rx="6"/>
  <!-- Sync status -->
  <circle cx="24" cy="776" r="4" fill="#3fb950"/>
  <text x="34" y="780" fill="#8b949e" font-size="9">设置已同步</text>
  <text x="130" y="780" fill="#6e7681" font-size="9">配置版本: 1</text>
  <!-- Version on right -->
  <text x="1140" y="780" fill="#6e7681" font-size="9">VaneHub AI v0.1.0</text>
</svg>