<?xml version="1.0" encoding="UTF-8"?>
<svg xmlns="http://www.w3.org/2000/svg" viewBox="0 0 1200 900" font-family="Inter, Microsoft YaHei, monospace">
  <defs>
    <linearGradient id="bgGrad" x1="0" y1="0" x2="0" y2="1">
      <stop offset="0%" stop-color="#0d1117"/>
      <stop offset="100%" stop-color="#161b22"/>
    </linearGradient>
    <linearGradient id="navHighlight" x1="0" y1="0" x2="1" y2="0">
      <stop offset="0%" stop-color="#5b9cf5"/>
      <stop offset="100%" stop-color="transparent"/>
    </linearGradient>
    <linearGradient id="glowBorder" x1="0" y1="0" x2="1" y2="1">
      <stop offset="0%" stop-color="#5b9cf5" stop-opacity="0.6"/>
      <stop offset="50%" stop-color="#5b9cf5" stop-opacity="0.15"/>
      <stop offset="100%" stop-color="#5b9cf5" stop-opacity="0.6"/>
    </linearGradient>
    <filter id="glow">
      <feGaussianBlur stdDeviation="3" result="blur"/>
      <feMerge><feMergeNode in="blur"/><feMergeNode in="SourceGraphic"/></feMerge>
    </filter>
    <filter id="softGlow">
      <feGaussianBlur stdDeviation="1.5" result="blur"/>
      <feMerge><feMergeNode in="blur"/><feMergeNode in="SourceGraphic"/></feMerge>
    </filter>
  </defs>

  <!-- ===== BACKGROUND ===== -->
  <rect width="1200" height="900" fill="url(#bgGrad)"/>
  <!-- Subtle grid pattern -->
  <g opacity="0.03">
    <line x1="0" y1="0" x2="0" y2="900" stroke="#5b9cf5" stroke-width="0.5"/>
    <line x1="60" y1="0" x2="60" y2="900" stroke="#5b9cf5" stroke-width="0.5"/>
    <line x1="120" y1="0" x2="120" y2="900" stroke="#5b9cf5" stroke-width="0.5"/>
    <line x1="180" y1="0" x2="180" y2="900" stroke="#5b9cf5" stroke-width="0.5"/>
    <line x1="240" y1="0" x2="240" y2="900" stroke="#5b9cf5" stroke-width="0.5"/>
    <line x1="300" y1="0" x2="300" y2="900" stroke="#5b9cf5" stroke-width="0.5"/>
    <line x1="0" y1="60" x2="1200" y2="60" stroke="#5b9cf5" stroke-width="0.5"/>
    <line x1="0" y1="120" x2="1200" y2="120" stroke="#5b9cf5" stroke-width="0.5"/>
    <line x1="0" y1="180" x2="1200" y2="180" stroke="#5b9cf5" stroke-width="0.5"/>
  </g>

  <!-- ==================== TOP NAV ==================== -->
  <rect x="0" y="0" width="1200" height="48" fill="rgba(22,27,34,0.95)"/>
  <!-- Blue highlight line at top -->
  <rect x="0" y="0" width="1200" height="2" fill="#5b9cf5" filter="url(#softGlow)"/>
  <!-- Divider line -->
  <line x1="0" y1="48" x2="1200" y2="48" stroke="#2d3548" stroke-width="1"/>

  <!-- Logo circle -->
  <circle cx="24" cy="24" r="12" fill="none" stroke="#5b9cf5" stroke-width="1.5"/>
  <text x="24" y="28" fill="#5b9cf5" font-size="10" font-weight="bold" text-anchor="middle">V</text>
  <text x="44" y="29" fill="#e6edf3" font-size="14" font-weight="bold">VaneHub AI</text>
  <!-- Breadcrumb -->
  <text x="150" y="29" fill="#6e7681" font-size="11">/</text>
  <text x="164" y="29" fill="#8b949e" font-size="11">设置</text>
  <text x="196" y="29" fill="#6e7681" font-size="11">/</text>
  <text x="210" y="29" fill="#e6edf3" font-size="11" font-weight="600">供应商管理</text>

  <!-- Search -->
  <rect x="780" y="12" width="260" height="26" rx="6" fill="#0d1117" stroke="#2d3548" stroke-width="1"/>
  <text x="796" y="29" fill="#6e7681" font-size="11">S</text>
  <text x="814" y="29" fill="#6e7681" font-size="10">搜索供应商...</text>
  <rect x="1020" y="16" width="36" height="18" rx="4" fill="#2d3548" stroke="#3d4a5c" stroke-width="0.5"/>
  <text x="1038" y="29" fill="#8b949e" font-size="8" text-anchor="middle">/</text>

  <!-- Return button -->
  <rect x="1110" y="12" width="72" height="26" rx="6" fill="#2d3548" stroke="#3d4a5c" stroke-width="1"/>
  <text x="1146" y="29" fill="#8b949e" font-size="10" text-anchor="middle">返回</text>

  <!-- ==================== LEFT SIDEBAR ==================== -->
  <rect x="0" y="48" width="220" height="802" fill="rgba(22,27,34,0.85)"/>
  <line x1="220" y1="48" x2="220" y2="850" stroke="#2d3548" stroke-width="1"/>

  <!-- Section label -->
  <text x="16" y="76" fill="#6e7681" font-size="9" font-weight="600" letter-spacing="1">系统设置</text>
  <line x1="16" y1="84" x2="204" y2="84" stroke="#2d3548" stroke-width="1"/>

  <!-- Nav 1: 基础配置 -->
  <rect x="8" y="96" width="204" height="36" rx="6" fill="transparent"/>
  <circle cx="28" cy="114" r="10" fill="rgba(45,53,72,0.6)" stroke="#3d4a5c" stroke-width="1"/>
  <text x="28" y="118" fill="#8b949e" font-size="9" text-anchor="middle" font-weight="600">B</text>
  <text x="46" y="118" fill="#8b949e" font-size="11">基础配置</text>

  <!-- Nav 2: 供应商管理 (ACTIVE) -->
  <rect x="8" y="140" width="204" height="36" rx="6" fill="rgba(91,156,245,0.1)"/>
  <!-- Left blue indicator bar -->
  <rect x="0" y="140" width="3" height="36" rx="1" fill="#5b9cf5" filter="url(#softGlow)"/>
  <circle cx="28" cy="158" r="10" fill="rgba(91,156,245,0.15)" stroke="#5b9cf5" stroke-width="1"/>
  <text x="28" y="162" fill="#5b9cf5" font-size="9" text-anchor="middle" font-weight="600">P</text>
  <text x="46" y="162" fill="#5b9cf5" font-size="11" font-weight="600">供应商管理</text>
  <!-- Badge -->
  <rect x="176" y="150" width="24" height="16" rx="8" fill="rgba(248,81,73,0.2)" stroke="rgba(248,81,73,0.4)" stroke-width="0.5"/>
  <text x="188" y="162" fill="#f85149" font-size="9" text-anchor="middle" font-weight="600">3</text>

  <!-- Nav 3: SDK 依赖 -->
  <rect x="8" y="184" width="204" height="36" rx="6" fill="transparent"/>
  <circle cx="28" cy="202" r="10" fill="rgba(45,53,72,0.6)" stroke="#3d4a5c" stroke-width="1"/>
  <text x="28" y="206" fill="#8b949e" font-size="9" text-anchor="middle" font-weight="600">S</text>
  <text x="46" y="206" fill="#8b949e" font-size="11">SDK 依赖</text>
  <rect x="176" y="194" width="24" height="16" rx="8" fill="rgba(248,81,73,0.2)" stroke="rgba(248,81,73,0.4)" stroke-width="0.5"/>
  <text x="188" y="206" fill="#f85149" font-size="9" text-anchor="middle" font-weight="600">5</text>

  <!-- Nav 4: MCP 服务器 -->
  <rect x="8" y="228" width="204" height="36" rx="6" fill="transparent"/>
  <circle cx="28" cy="246" r="10" fill="rgba(45,53,72,0.6)" stroke="#3d4a5c" stroke-width="1"/>
  <text x="28" y="250" fill="#8b949e" font-size="9" text-anchor="middle" font-weight="600">M</text>
  <text x="46" y="250" fill="#8b949e" font-size="11">MCP 服务器</text>
  <rect x="176" y="238" width="24" height="16" rx="8" fill="rgba(63,185,80,0.15)" stroke="rgba(63,185,80,0.3)" stroke-width="0.5"/>
  <text x="188" y="250" fill="#3fb950" font-size="9" text-anchor="middle" font-weight="600">2</text>

  <!-- Nav 5: Agents -->
  <rect x="8" y="272" width="204" height="36" rx="6" fill="transparent"/>
  <circle cx="28" cy="290" r="10" fill="rgba(45,53,72,0.6)" stroke="#3d4a5c" stroke-width="1"/>
  <text x="28" y="294" fill="#8b949e" font-size="9" text-anchor="middle" font-weight="600">A</text>
  <text x="46" y="294" fill="#8b949e" font-size="11">Agents</text>
  <rect x="176" y="282" width="24" height="16" rx="8" fill="rgba(248,81,73,0.2)" stroke="rgba(248,81,73,0.4)" stroke-width="0.5"/>
  <text x="188" y="294" fill="#f85149" font-size="9" text-anchor="middle" font-weight="600">4</text>

  <!-- Nav 6: Skills -->
  <rect x="8" y="316" width="204" height="36" rx="6" fill="transparent"/>
  <circle cx="28" cy="334" r="10" fill="rgba(45,53,72,0.6)" stroke="#3d4a5c" stroke-width="1"/>
  <text x="28" y="338" fill="#8b949e" font-size="9" text-anchor="middle" font-weight="600">K</text>
  <text x="46" y="338" fill="#8b949e" font-size="11">Skills</text>
  <rect x="176" y="326" width="24" height="16" rx="8" fill="rgba(248,81,73,0.2)" stroke="rgba(248,81,73,0.4)" stroke-width="0.5"/>
  <text x="188" y="338" fill="#f85149" font-size="9" text-anchor="middle" font-weight="600">8</text>

  <!-- Divider -->
  <line x1="16" y1="366" x2="204" y2="366" stroke="#2d3548" stroke-width="1"/>

  <!-- Version info at sidebar bottom -->
  <rect x="8" y="814" width="204" height="30" rx="6" fill="rgba(13,17,23,0.5)"/>
  <text x="16" y="833" fill="#6e7681" font-size="9">VaneHub AI v0.1.0</text>

  <!-- ==================== RIGHT CONTENT AREA ==================== -->
  <rect x="220" y="48" width="980" height="802" fill="rgba(22,27,34,0.4)"/>

  <!-- Content area inner padding -->
  <g transform="translate(236, 60)">

    <!-- Breadcrumb -->
    <text x="0" y="12" fill="#6e7681" font-size="10">设置</text>
    <text x="30" y="12" fill="#3d4a5c" font-size="10">/</text>
    <text x="40" y="12" fill="#e6edf3" font-size="10" font-weight="600">供应商管理</text>

    <!-- ===== FILTER TABS + ADD BUTTON ===== -->
    <!-- Tab: 全部 (active) -->
    <rect x="0" y="26" width="80" height="28" rx="6" fill="rgba(91,156,245,0.15)" stroke="#5b9cf5" stroke-width="1"/>
    <text x="40" y="44" fill="#5b9cf5" font-size="10" text-anchor="middle" font-weight="600">全部 (3)</text>

    <!-- Tab: 已启用 -->
    <rect x="88" y="26" width="80" height="28" rx="6" fill="transparent" stroke="#2d3548" stroke-width="1"/>
    <text x="128" y="44" fill="#8b949e" font-size="10" text-anchor="middle">已启用 (2)</text>

    <!-- Tab: 已禁用 -->
    <rect x="176" y="26" width="80" height="28" rx="6" fill="transparent" stroke="#2d3548" stroke-width="1"/>
    <text x="216" y="44" fill="#8b949e" font-size="10" text-anchor="middle">已禁用 (1)</text>

    <!-- Add provider button -->
    <rect x="856" y="26" width="110" height="28" rx="6" fill="#5b9cf5" filter="url(#softGlow)"/>
    <text x="911" y="44" fill="#e6edf3" font-size="10" text-anchor="middle" font-weight="600">+ 添加供应商</text>

    <!-- ===== PROVIDER CARD 1: 智谱 AI (active, running) ===== -->
    <g transform="translate(0, 68)">
      <!-- Card background with glow border (active) -->
      <rect x="0" y="0" width="484" height="190" rx="8" fill="rgba(33,40,59,0.6)" stroke="url(#glowBorder)" stroke-width="1.5"/>
      <!-- Top accent line -->
      <rect x="0" y="0" width="484" height="1" rx="0" fill="#5b9cf5" opacity="0.5"/>

      <!-- Header row -->
      <circle cx="22" cy="24" r="14" fill="rgba(91,156,245,0.15)" stroke="#5b9cf5" stroke-width="1"/>
      <text x="22" y="28" fill="#5b9cf5" font-size="10" text-anchor="middle" font-weight="700">Z</text>
      <text x="44" y="28" fill="#e6edf3" font-size="13" font-weight="700">智谱 AI</text>
      <text x="104" y="28" fill="#6e7681" font-size="9">Zhipu AI</text>

      <!-- Status: 运行中 green dot -->
      <circle cx="390" cy="22" r="4" fill="#3fb950" filter="url(#softGlow)"/>
      <text x="400" y="27" fill="#3fb950" font-size="10">运行中</text>

      <!-- Toggle: ON -->
      <rect x="432" y="12" width="40" height="20" rx="10" fill="#5b9cf5"/>
      <circle cx="462" cy="22" r="7" fill="#e6edf3"/>

      <!-- Models -->
      <text x="14" y="54" fill="#8b949e" font-size="10">模型</text>
      <rect x="56" y="42" width="72" height="18" rx="4" fill="rgba(91,156,245,0.1)" stroke="rgba(91,156,245,0.3)" stroke-width="0.5"/>
      <text x="92" y="55" fill="#5b9cf5" font-size="9" text-anchor="middle">GLM-4.5</text>
      <rect x="134" y="42" width="60" height="18" rx="4" fill="rgba(91,156,245,0.1)" stroke="rgba(91,156,245,0.3)" stroke-width="0.5"/>
      <text x="164" y="55" fill="#5b9cf5" font-size="9" text-anchor="middle">GLM-4</text>

      <!-- API Key -->
      <text x="14" y="80" fill="#8b949e" font-size="10">API Key</text>
      <rect x="80" y="68" width="260" height="20" rx="4" fill="#0d1117" stroke="#2d3548" stroke-width="1"/>
      <text x="90" y="82" fill="#e6edf3" font-size="9">sk-••••••••••••••••••3f7a</text>
      <!-- Configured indicator -->
      <circle cx="354" cy="78" r="4" fill="#3fb950"/>
      <text x="364" y="82" fill="#3fb950" font-size="9">已配置</text>

      <!-- Base URL -->
      <text x="14" y="106" fill="#8b949e" font-size="10">端点</text>
      <rect x="80" y="94" width="340" height="20" rx="4" fill="#0d1117" stroke="#2d3548" stroke-width="1"/>
      <text x="90" y="108" fill="#6e7681" font-size="9">https://open.bigmodel.cn/api/paas/v4</text>

      <!-- Action buttons -->
      <rect x="14" y="130" width="64" height="26" rx="6" fill="#2d3548" stroke="#3d4a5c" stroke-width="1"/>
      <text x="46" y="147" fill="#e6edf3" font-size="10" text-anchor="middle">配置</text>

      <rect x="86" y="130" width="64" height="26" rx="6" fill="#2d3548" stroke="#3d4a5c" stroke-width="1"/>
      <text x="118" y="147" fill="#e6edf3" font-size="10" text-anchor="middle">测试</text>

      <rect x="158" y="130" width="64" height="26" rx="6" fill="rgba(248,81,73,0.1)" stroke="rgba(248,81,73,0.3)" stroke-width="1"/>
      <text x="190" y="147" fill="#f85149" font-size="10" text-anchor="middle">删除</text>

      <!-- Priority badge -->
      <text x="420" y="147" fill="#6e7681" font-size="9">优先级</text>
      <rect x="452" y="134" width="22" height="18" rx="4" fill="rgba(91,156,245,0.15)" stroke="rgba(91,156,245,0.3)" stroke-width="0.5"/>
      <text x="463" y="147" fill="#5b9cf5" font-size="9" text-anchor="middle" font-weight="600">1</text>

      <!-- Latency info -->
      <text x="14" y="170" fill="#6e7681" font-size="9">平均延迟: </text>
      <text x="64" y="170" fill="#3fb950" font-size="9" font-weight="600">128ms</text>
      <text x="100" y="170" fill="#6e7681" font-size="9">| 成功率: </text>
      <text x="148" y="170" fill="#3fb950" font-size="9" font-weight="600">99.2%</text>
    </g>

    <!-- ===== PROVIDER CARD 2: Anthropic (active, idle) ===== -->
    <g transform="translate(496, 68)">
      <!-- Card background -->
      <rect x="0" y="0" width="484" height="190" rx="8" fill="rgba(33,40,59,0.6)" stroke="#2d3548" stroke-width="1"/>
      <rect x="0" y="0" width="484" height="1" rx="0" fill="#d29922" opacity="0.4"/>

      <!-- Header row -->
      <circle cx="22" cy="24" r="14" fill="rgba(168,120,255,0.15)" stroke="#a878ff" stroke-width="1"/>
      <text x="22" y="28" fill="#a878ff" font-size="10" text-anchor="middle" font-weight="700">A</text>
      <text x="44" y="28" fill="#e6edf3" font-size="13" font-weight="700">Anthropic</text>

      <!-- Status: 空闲 yellow dot -->
      <circle cx="390" cy="22" r="4" fill="#d29922"/>
      <text x="400" y="27" fill="#d29922" font-size="10">空闲</text>

      <!-- Toggle: ON -->
      <rect x="432" y="12" width="40" height="20" rx="10" fill="#5b9cf5"/>
      <circle cx="462" cy="22" r="7" fill="#e6edf3"/>

      <!-- Models -->
      <text x="14" y="54" fill="#8b949e" font-size="10">模型</text>
      <rect x="56" y="42" width="80" height="18" rx="4" fill="rgba(168,120,255,0.1)" stroke="rgba(168,120,255,0.3)" stroke-width="0.5"/>
      <text x="96" y="55" fill="#a878ff" font-size="9" text-anchor="middle">Claude-3.5</text>
      <rect x="142" y="42" width="68" height="18" rx="4" fill="rgba(168,120,255,0.1)" stroke="rgba(168,120,255,0.3)" stroke-width="0.5"/>
      <text x="176" y="55" fill="#a878ff" font-size="9" text-anchor="middle">Claude-3</text>

      <!-- API Key -->
      <text x="14" y="80" fill="#8b949e" font-size="10">API Key</text>
      <rect x="80" y="68" width="260" height="20" rx="4" fill="#0d1117" stroke="#2d3548" stroke-width="1"/>
      <text x="90" y="82" fill="#e6edf3" font-size="9">sk-ant-•••••••••••••7c2d</text>
      <circle cx="354" cy="78" r="4" fill="#3fb950"/>
      <text x="364" y="82" fill="#3fb950" font-size="9">已配置</text>

      <!-- Base URL -->
      <text x="14" y="106" fill="#8b949e" font-size="10">端点</text>
      <rect x="80" y="94" width="340" height="20" rx="4" fill="#0d1117" stroke="#2d3548" stroke-width="1"/>
      <text x="90" y="108" fill="#6e7681" font-size="9">https://api.anthropic.com/v1</text>

      <!-- Action buttons -->
      <rect x="14" y="130" width="64" height="26" rx="6" fill="#2d3548" stroke="#3d4a5c" stroke-width="1"/>
      <text x="46" y="147" fill="#e6edf3" font-size="10" text-anchor="middle">配置</text>

      <rect x="86" y="130" width="64" height="26" rx="6" fill="#2d3548" stroke="#3d4a5c" stroke-width="1"/>
      <text x="118" y="147" fill="#e6edf3" font-size="10" text-anchor="middle">测试</text>

      <rect x="158" y="130" width="64" height="26" rx="6" fill="rgba(248,81,73,0.1)" stroke="rgba(248,81,73,0.3)" stroke-width="1"/>
      <text x="190" y="147" fill="#f85149" font-size="10" text-anchor="middle">删除</text>

      <!-- Priority badge -->
      <text x="420" y="147" fill="#6e7681" font-size="9">优先级</text>
      <rect x="452" y="134" width="22" height="18" rx="4" fill="rgba(168,120,255,0.1)" stroke="rgba(168,120,255,0.3)" stroke-width="0.5"/>
      <text x="463" y="147" fill="#a878ff" font-size="9" text-anchor="middle" font-weight="600">2</text>

      <!-- Latency info -->
      <text x="14" y="170" fill="#6e7681" font-size="9">平均延迟: </text>
      <text x="64" y="170" fill="#d29922" font-size="9" font-weight="600">342ms</text>
      <text x="100" y="170" fill="#6e7681" font-size="9">| 成功率: </text>
      <text x="148" y="170" fill="#3fb950" font-size="9" font-weight="600">97.8%</text>
    </g>

    <!-- ===== PROVIDER CARD 3: OpenAI (disabled) ===== -->
    <g transform="translate(0, 274)" opacity="0.7">
      <!-- Card background -->
      <rect x="0" y="0" width="484" height="190" rx="8" fill="rgba(33,40,59,0.4)" stroke="#2d3548" stroke-width="1"/>

      <!-- Header row -->
      <circle cx="22" cy="24" r="14" fill="rgba(45,53,72,0.6)" stroke="#3d4a5c" stroke-width="1"/>
      <text x="22" y="28" fill="#6e7681" font-size="10" text-anchor="middle" font-weight="700">O</text>
      <text x="44" y="28" fill="#8b949e" font-size="13" font-weight="700">OpenAI</text>

      <!-- Status: 已禁用 gray -->
      <circle cx="390" cy="22" r="4" fill="#6e7681"/>
      <text x="400" y="27" fill="#6e7681" font-size="10">已禁用</text>

      <!-- Toggle: OFF -->
      <rect x="432" y="12" width="40" height="20" rx="10" fill="#484f58"/>
      <circle cx="442" cy="22" r="7" fill="#8b949e"/>

      <!-- Models -->
      <text x="14" y="54" fill="#6e7681" font-size="10">模型</text>
      <rect x="56" y="42" width="60" height="18" rx="4" fill="rgba(45,53,72,0.5)" stroke="#3d4a5c" stroke-width="0.5"/>
      <text x="86" y="55" fill="#6e7681" font-size="9" text-anchor="middle">GPT-4o</text>
      <rect x="122" y="42" width="52" height="18" rx="4" fill="rgba(45,53,72,0.5)" stroke="#3d4a5c" stroke-width="0.5"/>
      <text x="148" y="55" fill="#6e7681" font-size="9" text-anchor="middle">GPT-4</text>

      <!-- API Key (not configured) -->
      <text x="14" y="80" fill="#6e7681" font-size="10">API Key</text>
      <rect x="80" y="68" width="260" height="20" rx="4" fill="#0d1117" stroke="#2d3548" stroke-width="1"/>
      <text x="90" y="82" fill="#6e7681" font-size="9">未配置 API Key</text>
      <!-- Warning icon -->
      <circle cx="354" cy="78" r="4" fill="#d29922"/>
      <text x="364" y="82" fill="#d29922" font-size="9">未配置</text>

      <!-- Base URL -->
      <text x="14" y="106" fill="#6e7681" font-size="10">端点</text>
      <rect x="80" y="94" width="340" height="20" rx="4" fill="#0d1117" stroke="#2d3548" stroke-width="1"/>
      <text x="90" y="108" fill="#6e7681" font-size="9">https://api.openai.com/v1</text>

      <!-- Action buttons -->
      <rect x="14" y="130" width="64" height="26" rx="6" fill="#2d3548" stroke="#3d4a5c" stroke-width="1"/>
      <text x="46" y="147" fill="#8b949e" font-size="10" text-anchor="middle">配置</text>

      <rect x="86" y="130" width="64" height="26" rx="6" fill="#2d3548" stroke="#3d4a5c" stroke-width="1"/>
      <text x="118" y="147" fill="#8b949e" font-size="10" text-anchor="middle">测试</text>

      <rect x="158" y="130" width="64" height="26" rx="6" fill="rgba(248,81,73,0.1)" stroke="rgba(248,81,73,0.3)" stroke-width="1"/>
      <text x="190" y="147" fill="#f85149" font-size="10" text-anchor="middle">删除</text>

      <!-- Priority badge -->
      <text x="420" y="147" fill="#6e7681" font-size="9">优先级</text>
      <rect x="452" y="134" width="22" height="18" rx="4" fill="rgba(45,53,72,0.5)" stroke="#3d4a5c" stroke-width="0.5"/>
      <text x="463" y="147" fill="#6e7681" font-size="9" text-anchor="middle" font-weight="600">3</text>

      <!-- No data notice -->
      <text x="14" y="170" fill="#6e7681" font-size="9">无连接数据 — 请先配置 API Key 并启用供应商</text>
    </g>

    <!-- ===== ADD PLACEHOLDER CARD ===== -->
    <g transform="translate(496, 274)">
      <rect x="0" y="0" width="484" height="190" rx="8" fill="transparent" stroke="#2d3548" stroke-width="1" stroke-dasharray="8,4"/>
      <!-- Plus icon circle -->
      <circle cx="242" cy="78" r="20" fill="rgba(91,156,245,0.08)" stroke="rgba(91,156,245,0.3)" stroke-width="1"/>
      <text x="242" y="84" fill="#5b9cf5" font-size="18" text-anchor="middle" font-weight="300">+</text>
      <text x="242" y="116" fill="#6e7681" font-size="11" text-anchor="middle">添加新供应商</text>
      <text x="242" y="134" fill="#3d4a5c" font-size="9" text-anchor="middle">支持 OpenAI / Anthropic / 智谱 / 自定义</text>
    </g>

    <!-- ===== ROUTING STRATEGY SECTION ===== -->
    <g transform="translate(0, 484)">
      <rect x="0" y="0" width="980" height="140" rx="8" fill="rgba(33,40,59,0.6)" stroke="#2d3548" stroke-width="1"/>
      <!-- Section header -->
      <rect x="0" y="0" width="980" height="1" fill="#5b9cf5" opacity="0.3"/>
      <text x="14" y="24" fill="#e6edf3" font-size="13" font-weight="600">路由策略</text>
      <text x="14" y="40" fill="#6e7681" font-size="9">多供应商环境下的模型路由与故障处理策略</text>

      <!-- Row 1 -->
      <text x="14" y="68" fill="#8b949e" font-size="10">默认供应商</text>
      <rect x="110" y="54" width="140" height="24" rx="4" fill="#0d1117" stroke="#2d3548" stroke-width="1"/>
      <text x="120" y="70" fill="#e6edf3" font-size="10">智谱 AI</text>
      <text x="236" y="70" fill="#6e7681" font-size="8">&#9662;</text>

      <text x="270" y="68" fill="#8b949e" font-size="10">负载均衡</text>
      <rect x="350" y="54" width="140" height="24" rx="4" fill="#0d1117" stroke="#2d3548" stroke-width="1"/>
      <text x="360" y="70" fill="#e6edf3" font-size="10">轮询</text>
      <text x="476" y="70" fill="#6e7681" font-size="8">&#9662;</text>

      <text x="510" y="68" fill="#8b949e" font-size="10">故障转移</text>
      <!-- Toggle: ON -->
      <rect x="580" y="56" width="40" height="20" rx="10" fill="#5b9cf5"/>
      <circle cx="610" cy="66" r="7" fill="#e6edf3"/>
      <text x="628" y="70" fill="#3fb950" font-size="9">已启用</text>

      <!-- Row 2 -->
      <text x="14" y="104" fill="#8b949e" font-size="10">超时时间</text>
      <rect x="110" y="90" width="100" height="24" rx="4" fill="#0d1117" stroke="#2d3548" stroke-width="1"/>
      <text x="120" y="106" fill="#e6edf3" font-size="10">30 秒</text>

      <text x="270" y="104" fill="#8b949e" font-size="10">重试次数</text>
      <rect x="350" y="90" width="100" height="24" rx="4" fill="#0d1117" stroke="#2d3548" stroke-width="1"/>
      <text x="360" y="106" fill="#e6edf3" font-size="10">3 次</text>

      <!-- Help text -->
      <text x="510" y="104" fill="#6e7681" font-size="9">故障转移: 当主供应商不可用时自动切换至备用供应商</text>

      <!-- Save button -->
      <rect x="874" y="90" width="92" height="28" rx="6" fill="#5b9cf5"/>
      <text x="920" y="108" fill="#e6edf3" font-size="10" text-anchor="middle" font-weight="600">保存策略</text>
    </g>

  </g>

  <!-- ==================== BOTTOM STATUS BAR ==================== -->
  <rect x="0" y="850" width="1200" height="50" fill="rgba(13,17,23,0.95)"/>
  <line x1="0" y1="850" x2="1200" y2="850" stroke="#2d3548" stroke-width="1"/>

  <!-- Status indicators -->
  <circle cx="16" cy="876" r="4" fill="#3fb950" filter="url(#softGlow)"/>
  <text x="26" y="880" fill="#8b949e" font-size="10">2/3 供应商已启用</text>

  <text x="164" y="880" fill="#6e7681" font-size="10">|</text>

  <circle cx="180" cy="876" r="4" fill="#d29922"/>
  <text x="190" y="880" fill="#8b949e" font-size="10">1 空闲</text>

  <text x="246" y="880" fill="#6e7681" font-size="10">|</text>

  <text x="260" y="880" fill="#8b949e" font-size="10">活跃模型: 8</text>

  <!-- Right side version -->
  <text x="1150" y="880" fill="#6e7681" font-size="9" text-anchor="end">VaneHub AI v0.1.0</text>
</svg>