<?xml version="1.0" encoding="UTF-8"?>
<svg xmlns="http://www.w3.org/2000/svg" viewBox="0 0 1200 820" font-family="Inter, Microsoft YaHei, monospace">
  <defs>
    <linearGradient id="bgGrad" x1="0" y1="0" x2="0" y2="1">
      <stop offset="0%" stop-color="#0d1117"/>
      <stop offset="100%" stop-color="#161b22"/>
    </linearGradient>
    <linearGradient id="navGrad" x1="0" y1="0" x2="1" y2="0">
      <stop offset="0%" stop-color="#161b22"/>
      <stop offset="100%" stop-color="#1a2030"/>
    </linearGradient>
    <linearGradient id="btnPrimaryGrad" x1="0" y1="0" x2="0" y2="1">
      <stop offset="0%" stop-color="#6ba8f7"/>
      <stop offset="100%" stop-color="#4a8fe0"/>
    </linearGradient>
    <linearGradient id="sliderTrack" x1="0" y1="0" x2="1" y2="0">
      <stop offset="0%" stop-color="#5b9cf5"/>
      <stop offset="100%" stop-color="#5b9cf5"/>
    </linearGradient>
    <filter id="shadowDeep">
      <feDropShadow dx="0" dy="8" stdDeviation="10" flood-color="#000000" flood-opacity="0.4"/>
    </filter>
    <filter id="shadow">
      <feDropShadow dx="0" dy="4" stdDeviation="6" flood-color="#000000" flood-opacity="0.3"/>
    </filter>
    <filter id="glowBlue">
      <feDropShadow dx="0" dy="0" stdDeviation="3" flood-color="#5b9cf5" flood-opacity="0.35"/>
    </filter>
  </defs>

  <!-- 全局背景 -->
  <rect width="1200" height="820" fill="url(#bgGrad)"/>

  <!-- ==================== 顶部导航栏 ==================== -->
  <rect x="0" y="0" width="1200" height="48" fill="url(#navGrad)" filter="url(#shadow)"/>
  <!-- 顶部蓝色高亮线 -->
  <rect x="0" y="0" width="1200" height="2" fill="#5b9cf5" opacity="0.6"/>

  <!-- Logo -->
  <rect x="16" y="12" width="24" height="24" rx="4" fill="none" stroke="#5b9cf5" stroke-width="1.5"/>
  <path d="M22 18 L28 18 L28 24 L22 24 Z" fill="#5b9cf5" opacity="0.3"/>
  <path d="M24 20 L26 20 L26 22 L24 22 Z" fill="#5b9cf5"/>
  <text x="48" y="29" fill="#e6edf3" font-size="14" font-weight="bold">VaneHub AI</text>

  <!-- 面包屑分隔 -->
  <text x="148" y="29" fill="#6e7681" font-size="12">/</text>
  <text x="162" y="29" fill="#8b949e" font-size="13">设置</text>

  <!-- 全局搜索 -->
  <rect x="700" y="11" width="240" height="28" rx="6" fill="#0d1117" stroke="#2d3548" stroke-width="1"/>
  <text x="714" y="29" fill="#6e7681" font-size="11">搜索设置项...</text>
  <rect x="910" y="16" width="20" height="18" rx="3" fill="#2d3548"/>
  <text x="920" y="29" fill="#8b949e" font-size="9" text-anchor="middle">Q</text>

  <!-- 返回按钮 -->
  <rect x="1124" y="11" width="60" height="28" rx="4" fill="#2d3548" stroke="#3d4a5c" stroke-width="1"/>
  <text x="1154" y="29" fill="#8b949e" font-size="11" text-anchor="middle">返回</text>

  <!-- ==================== 左侧设置导航 ==================== -->
  <rect x="12" y="58" width="232" height="708" rx="12" fill="rgba(22,27,34,0.85)" stroke="#2d3548" stroke-width="1" filter="url(#shadow)"/>

  <!-- 导航标题 -->
  <text x="28" y="86" fill="#e6edf3" font-size="13" font-weight="bold">系统设置</text>
  <line x1="24" y1="96" x2="232" y2="96" stroke="#2d3548" stroke-width="1"/>

  <!-- 1. 基础配置 (选中态 - 带左侧指示条) -->
  <rect x="20" y="104" width="216" height="36" rx="6" fill="rgba(91,156,245,0.1)"/>
  <rect x="20" y="104" width="3" height="36" rx="1.5" fill="#5b9cf5"/>
  <!-- 图标: 齿轮 -->
  <circle cx="42" cy="122" r="6" fill="none" stroke="#5b9cf5" stroke-width="1.5"/>
  <circle cx="42" cy="122" r="2" fill="#5b9cf5"/>
  <text x="56" y="126" fill="#5b9cf5" font-size="12" font-weight="bold">基础配置</text>
  <text x="218" y="126" fill="#5b9cf5" font-size="10" text-anchor="end">&#x25B8;</text>

  <!-- 2. 供应商管理 -->
  <rect x="20" y="146" width="216" height="36" rx="6" fill="transparent"/>
  <rect x="36" y="157" width="12" height="12" rx="2" fill="none" stroke="#8b949e" stroke-width="1.2"/>
  <rect x="39" y="160" width="6" height="6" rx="1" fill="#8b949e" opacity="0.4"/>
  <text x="56" y="168" fill="#8b949e" font-size="12">供应商管理</text>
  <rect x="198" y="155" width="18" height="16" rx="8" fill="#f85149"/>
  <text x="207" y="166" fill="#ffffff" font-size="9" text-anchor="middle" font-weight="bold">3</text>

  <!-- 3. SDK依赖 -->
  <rect x="20" y="188" width="216" height="36" rx="6" fill="transparent"/>
  <rect x="36" y="199" width="12" height="12" rx="2" fill="none" stroke="#8b949e" stroke-width="1.2"/>
  <path d="M39 202 L45 202 L45 208 L39 208 Z" fill="#8b949e" opacity="0.4"/>
  <text x="56" y="210" fill="#8b949e" font-size="12">SDK依赖</text>
  <rect x="198" y="197" width="18" height="16" rx="8" fill="#f85149"/>
  <text x="207" y="208" fill="#ffffff" font-size="9" text-anchor="middle" font-weight="bold">5</text>

  <!-- 4. MCP服务器 -->
  <rect x="20" y="230" width="216" height="36" rx="6" fill="transparent"/>
  <circle cx="42" cy="248" r="6" fill="none" stroke="#8b949e" stroke-width="1.2"/>
  <circle cx="42" cy="248" r="2.5" fill="#8b949e" opacity="0.4"/>
  <text x="56" y="252" fill="#8b949e" font-size="12">MCP服务器</text>
  <rect x="198" y="239" width="18" height="16" rx="8" fill="#3fb950"/>
  <text x="207" y="250" fill="#ffffff" font-size="9" text-anchor="middle" font-weight="bold">2</text>

  <!-- 5. Agents -->
  <rect x="20" y="272" width="216" height="36" rx="6" fill="transparent"/>
  <path d="M36 284 L48 284 L48 292 L36 292 Z" fill="none" stroke="#8b949e" stroke-width="1.2" rx="2"/>
  <circle cx="42" cy="288" r="3" fill="#8b949e" opacity="0.4"/>
  <text x="56" y="294" fill="#8b949e" font-size="12">Agents</text>
  <rect x="198" y="281" width="18" height="16" rx="8" fill="#f85149"/>
  <text x="207" y="292" fill="#ffffff" font-size="9" text-anchor="middle" font-weight="bold">4</text>

  <!-- 6. Skills -->
  <rect x="20" y="314" width="216" height="36" rx="6" fill="transparent"/>
  <path d="M42 322 L46 330 L38 330 Z" fill="none" stroke="#8b949e" stroke-width="1.2"/>
  <text x="56" y="336" fill="#8b949e" font-size="12">Skills</text>
  <rect x="198" y="323" width="18" height="16" rx="8" fill="#f85149"/>
  <text x="207" y="334" fill="#ffffff" font-size="9" text-anchor="middle" font-weight="bold">8</text>

  <!-- 分隔线 -->
  <line x1="24" y1="364" x2="232" y2="364" stroke="#2d3548" stroke-width="1"/>

  <!-- 快捷操作 -->
  <text x="28" y="386" fill="#8b949e" font-size="11" font-weight="bold">快捷操作</text>

  <!-- 重置所有设置 -->
  <rect x="20" y="396" width="216" height="30" rx="4" fill="rgba(248,81,73,0.08)" stroke="rgba(248,81,73,0.25)" stroke-width="1"/>
  <text x="32" y="415" fill="#f85149" font-size="11">重置所有设置</text>

  <!-- 导出当前配置 -->
  <rect x="20" y="432" width="216" height="30" rx="4" fill="rgba(91,156,245,0.06)" stroke="rgba(91,156,245,0.2)" stroke-width="1"/>
  <text x="32" y="451" fill="#5b9cf5" font-size="11">导出当前配置</text>

  <!-- 导入配置文件 -->
  <rect x="20" y="468" width="216" height="30" rx="4" fill="rgba(91,156,245,0.06)" stroke="rgba(91,156,245,0.2)" stroke-width="1"/>
  <text x="32" y="487" fill="#5b9cf5" font-size="11">导入配置文件</text>

  <!-- 版本信息 -->
  <rect x="20" y="714" width="216" height="40" rx="6" fill="rgba(13,17,23,0.6)" stroke="#2d3548" stroke-width="0.5"/>
  <text x="32" y="732" fill="#6e7681" font-size="10">VaneHub AI v0.1.0</text>
  <text x="32" y="746" fill="#6e7681" font-size="9">构建: 2026-07-14</text>

  <!-- ==================== 右侧设置内容区 ==================== -->
  <rect x="256" y="58" width="932" height="708" rx="12" fill="rgba(22,27,34,0.85)" stroke="#2d3548" stroke-width="1" filter="url(#shadow)"/>

  <!-- 面包屑 -->
  <text x="276" y="84" fill="#6e7681" font-size="11">设置</text>
  <text x="298" y="84" fill="#6e7681" font-size="11">/</text>
  <text x="308" y="84" fill="#e6edf3" font-size="11" font-weight="bold">基础配置</text>

  <!-- ===== 通用设置 Section ===== -->
  <rect x="272" y="98" width="900" height="218" rx="8" fill="rgba(33,40,59,0.6)" stroke="#2d3548" stroke-width="1"/>
  <!-- Section header -->
  <text x="290" y="124" fill="#e6edf3" font-size="13" font-weight="bold">通用设置</text>
  <text x="290" y="140" fill="#6e7681" font-size="10">应用程序的基础参数与行为配置</text>
  <line x1="290" y1="148" x2="1154" y2="148" stroke="#2d3548" stroke-width="0.5"/>

  <!-- 应用名称 -->
  <text x="290" y="170" fill="#8b949e" font-size="11">应用名称</text>
  <rect x="420" y="157" width="240" height="26" rx="6" fill="#0d1117" stroke="#2d3548" stroke-width="1"/>
  <text x="432" y="174" fill="#e6edf3" font-size="11">VaneHub AI</text>

  <!-- 应用语言 -->
  <text x="690" y="170" fill="#8b949e" font-size="11">应用语言</text>
  <rect x="780" y="157" width="160" height="26" rx="6" fill="#0d1117" stroke="#2d3548" stroke-width="1"/>
  <text x="792" y="174" fill="#e6edf3" font-size="11">简体中文</text>
  <text x="924" y="174" fill="#6e7681" font-size="9">&#x25BE;</text>

  <!-- 主题模式 -->
  <text x="290" y="204" fill="#8b949e" font-size="11">主题模式</text>
  <rect x="420" y="191" width="72" height="26" rx="4" fill="#2d3548" stroke="#3d4a5c" stroke-width="1"/>
  <text x="456" y="208" fill="#8b949e" font-size="10" text-anchor="middle">深色</text>
  <!-- 浅色 active -->
  <rect x="498" y="191" width="72" height="26" rx="4" fill="#5b9cf5" filter="url(#glowBlue)"/>
  <text x="534" y="208" fill="#ffffff" font-size="10" text-anchor="middle" font-weight="bold">浅色</text>
  <rect x="576" y="191" width="72" height="26" rx="4" fill="#2d3548" stroke="#3d4a5c" stroke-width="1"/>
  <text x="612" y="208" fill="#8b949e" font-size="10" text-anchor="middle">跟随系统</text>

  <!-- 自动保存 toggle on -->
  <text x="290" y="238" fill="#8b949e" font-size="11">自动保存</text>
  <rect x="420" y="225" width="36" height="20" rx="10" fill="#5b9cf5"/>
  <circle cx="448" cy="235" r="7" fill="#ffffff"/>
  <text x="464" y="239" fill="#6e7681" font-size="9">每30秒自动保存会话</text>

  <!-- 启动恢复 toggle on -->
  <text x="690" y="238" fill="#8b949e" font-size="11">启动恢复</text>
  <rect x="780" y="225" width="36" height="20" rx="10" fill="#5b9cf5"/>
  <circle cx="808" cy="235" r="7" fill="#ffffff"/>
  <text x="824" y="239" fill="#6e7681" font-size="9">启动时恢复上次会话</text>

  <!-- 默认模型 -->
  <text x="290" y="272" fill="#8b949e" font-size="11">默认模型</text>
  <rect x="420" y="259" width="240" height="26" rx="6" fill="#0d1117" stroke="#2d3548" stroke-width="1"/>
  <text x="432" y="276" fill="#e6edf3" font-size="11">GLM-4.5</text>
  <text x="644" y="276" fill="#6e7681" font-size="9">&#x25BE;</text>

  <!-- ===== 模型参数 Section ===== -->
  <rect x="272" y="328" width="900" height="182" rx="8" fill="rgba(33,40,59,0.6)" stroke="#2d3548" stroke-width="1"/>
  <text x="290" y="354" fill="#e6edf3" font-size="13" font-weight="bold">模型参数</text>
  <text x="290" y="370" fill="#6e7681" font-size="10">全局默认模型推理参数，可在会话中覆盖</text>
  <line x1="290" y1="378" x2="1154" y2="378" stroke="#2d3548" stroke-width="0.5"/>

  <!-- 温度 slider 0.7 -->
  <text x="290" y="400" fill="#8b949e" font-size="11">温度</text>
  <rect x="420" y="389" width="280" height="20" rx="6" fill="#0d1117" stroke="#2d3548" stroke-width="0.5"/>
  <rect x="424" y="398" width="272" height="3" rx="1.5" fill="#2d3548"/>
  <rect x="424" y="398" width="190" height="3" rx="1.5" fill="#5b9cf5"/>
  <circle cx="614" cy="399.5" r="6" fill="#5b9cf5" stroke="#0d1117" stroke-width="2"/>
  <text x="712" y="402" fill="#e6edf3" font-size="11" font-weight="bold">0.7</text>

  <!-- 最大输出Token -->
  <text x="290" y="434" fill="#8b949e" font-size="11">最大输出Token</text>
  <rect x="420" y="421" width="160" height="26" rx="6" fill="#0d1117" stroke="#2d3548" stroke-width="1"/>
  <text x="432" y="438" fill="#e6edf3" font-size="11">4096</text>

  <!-- 上下文窗口 -->
  <text x="630" y="434" fill="#8b949e" font-size="11">上下文窗口</text>
  <rect x="740" y="421" width="160" height="26" rx="6" fill="#0d1117" stroke="#2d3548" stroke-width="1"/>
  <text x="752" y="438" fill="#e6edf3" font-size="11">8192</text>

  <!-- Top P slider 0.9 -->
  <text x="290" y="472" fill="#8b949e" font-size="11">Top P</text>
  <rect x="420" y="461" width="280" height="20" rx="6" fill="#0d1117" stroke="#2d3548" stroke-width="0.5"/>
  <rect x="424" y="470" width="272" height="3" rx="1.5" fill="#2d3548"/>
  <rect x="424" y="470" width="245" height="3" rx="1.5" fill="#5b9cf5"/>
  <circle cx="669" cy="471.5" r="6" fill="#5b9cf5" stroke="#0d1117" stroke-width="2"/>
  <text x="712" y="474" fill="#e6edf3" font-size="11" font-weight="bold">0.9</text>

  <!-- ===== 数据与存储 Section ===== -->
  <rect x="272" y="522" width="900" height="170" rx="8" fill="rgba(33,40,59,0.6)" stroke="#2d3548" stroke-width="1"/>
  <text x="290" y="548" fill="#e6edf3" font-size="13" font-weight="bold">数据与存储</text>
  <text x="290" y="564" fill="#6e7681" font-size="10">数据存储路径与缓存管理</text>
  <line x1="290" y1="572" x2="1154" y2="572" stroke="#2d3548" stroke-width="0.5"/>

  <!-- 数据目录 -->
  <text x="290" y="594" fill="#8b949e" font-size="11">数据目录</text>
  <rect x="420" y="581" width="480" height="26" rx="6" fill="#0d1117" stroke="#2d3548" stroke-width="1"/>
  <text x="432" y="598" fill="#e6edf3" font-size="11">C:\Users\c00606997\.vanehub-ai\data</text>
  <rect x="910" y="581" width="52" height="26" rx="4" fill="#2d3548" stroke="#3d4a5c" stroke-width="1"/>
  <text x="936" y="598" fill="#8b949e" font-size="10" text-anchor="middle">浏览</text>

  <!-- 缓存大小 + 清理缓存 -->
  <text x="290" y="628" fill="#8b949e" font-size="11">缓存大小</text>
  <text x="420" y="628" fill="#e6edf3" font-size="11" font-weight="bold">256 MB</text>
  <rect x="490" y="615" width="68" height="26" rx="4" fill="rgba(248,81,73,0.12)" stroke="rgba(248,81,73,0.35)" stroke-width="1"/>
  <text x="524" y="632" fill="#f85149" font-size="10" text-anchor="middle">清理缓存</text>

  <!-- 日志级别 -->
  <text x="620" y="628" fill="#8b949e" font-size="11">日志级别</text>
  <rect x="710" y="615" width="120" height="26" rx="6" fill="#0d1117" stroke="#2d3548" stroke-width="1"/>
  <text x="722" y="632" fill="#e6edf3" font-size="11">INFO</text>
  <text x="814" y="632" fill="#6e7681" font-size="9">&#x25BE;</text>

  <!-- 历史保留 -->
  <text x="870" y="628" fill="#8b949e" font-size="11">历史保留</text>
  <rect x="960" y="615" width="80" height="26" rx="6" fill="#0d1117" stroke="#2d3548" stroke-width="1"/>
  <text x="972" y="632" fill="#e6edf3" font-size="11">30天</text>

  <!-- ===== 底部操作栏 ===== -->
  <rect x="272" y="706" width="900" height="48" rx="8" fill="rgba(22,27,34,0.7)" stroke="#2d3548" stroke-width="1"/>

  <!-- 自动保存提示 -->
  <circle cx="290" cy="730" r="3" fill="#3fb950"/>
  <text x="298" y="734" fill="#6e7681" font-size="10">已启用自动保存</text>

  <!-- 重置默认按钮 -->
  <rect x="992" y="716" width="80" height="28" rx="4" fill="#2d3548" stroke="#3d4a5c" stroke-width="1"/>
  <text x="1032" y="734" fill="#8b949e" font-size="11" text-anchor="middle">重置默认</text>

  <!-- 保存按钮 (primary) -->
  <rect x="1082" y="716" width="80" height="28" rx="4" fill="url(#btnPrimaryGrad)" filter="url(#glowBlue)"/>
  <text x="1122" y="734" fill="#ffffff" font-size="11" text-anchor="middle" font-weight="bold">保存</text>

  <!-- ==================== 底部状态栏 ==================== -->
  <rect x="0" y="792" width="1200" height="28" fill="#0d1117" stroke="#2d3548" stroke-width="0.5"/>
  <circle cx="16" cy="806" r="3.5" fill="#3fb950"/>
  <text x="26" y="810" fill="#8b949e" font-size="10">设置已同步</text>
  <line x1="104" y1="798" x2="104" y2="814" stroke="#2d3548" stroke-width="1"/>
  <text x="114" y="810" fill="#6e7681" font-size="10">配置版本: 1</text>
</svg>
